<?xml version="1.0" encoding="UTF-8"?>
<svg version="1.1" xmlns="http://www.w3.org/2000/svg" width="420" height="420">
<path d="M0 0 C138.6 0 277.2 0 420 0 C420 138.6 420 277.2 420 420 C281.4 420 142.8 420 0 420 C0 281.4 0 142.8 0 0 Z " fill="#788EDC" transform="translate(0,0)"/>
<path d="M0 0 C138.6 0 277.2 0 420 0 C420 138.6 420 277.2 420 420 C281.4 420 142.8 420 0 420 C0 281.4 0 142.8 0 0 Z M35 35 C35 150.83 35 266.66 35 386 C81.53 386 128.06 386 176 386 C176 362.9 176 339.8 176 316 C198.77 316 221.54 316 245 316 C245 339.1 245 362.2 245 386 C291.53 386 338.06 386 386 386 C386 270.17 386 154.34 386 35 C270.17 35 154.34 35 35 35 Z " fill="#F0F0F0" transform="translate(0,0)"/>
<path d="M0 0 C22.77 0 45.54 0 69 0 C69 68.97 69 137.94 69 209 C46.23 209 23.46 209 0 209 C0 140.03 0 71.06 0 0 Z " fill="#F0F0F0" transform="translate(246,106)"/>
<path d="M0 0 C22.77 0 45.54 0 69 0 C69 68.97 69 137.94 69 209 C46.23 209 23.46 209 0 209 C0 140.03 0 71.06 0 0 Z " fill="#F0F0F0" transform="translate(106,106)"/>
</svg>
